<svg xmlns="http://www.w3.org/2000/svg" width="20" height="20" fill="none" viewBox="0 0 20 20">
  <path fill="#FF6D6D" fill-rule="evenodd" d="m17.38 12.787-4.7-8.305c-.587-1.013-1.704-1.641-2.917-1.641-1.212 0-2.33.628-2.916 1.641L2.072 12.78a3.057 3.057 0 0 0 .062 3.144c.6.964 1.688 1.556 2.863 1.557h9.45c1.173 0 2.26-.59 2.862-1.552a3.057 3.057 0 0 0 .07-3.141ZM9.047 8.205c0-.33.28-.597.625-.597s.625.267.625.597v2.458c0 .33-.28.596-.625.596a.611.611 0 0 1-.625-.596V8.205Zm.633 5.37a.611.611 0 0 0 .625-.597l-.008-.008a.603.603 0 0 0-.617-.589.62.62 0 0 0-.625.597c0 .33.28.596.625.596Z" clip-rule="evenodd"/>
</svg>
