<svg width="27.88" height="26.22" viewBox="0 0 29 28" fill="none" xmlns="http://www.w3.org/2000/svg">
<path d="M27.7586 12.3612L16.9404 1.54305C16.3524 0.957786 15.4968 0.730687 14.6959 0.9473C13.8951 1.16391 13.2706 1.79133 13.0577 2.59321C12.8449 3.39509 13.076 4.2496 13.664 4.83487L20.5104 11.6658H2.87678C1.59648 11.6658 0.558594 12.7037 0.558594 13.984C0.558594 15.2643 1.59648 16.3021 2.87678 16.3021H20.5104L13.664 23.1331C13.0019 23.796 12.804 24.7924 13.1624 25.6581C13.5209 26.5238 14.3652 27.0886 15.3022 27.0894C15.9244 27.0802 16.5159 26.8179 16.9404 26.3631L27.7586 15.5449C28.6625 14.6398 28.6625 13.1736 27.7586 12.2685V12.3612Z" fill="black"/>
</svg>
