<svg xmlns="http://www.w3.org/2000/svg" width="25" height="25" fill="none" viewBox="0 0 25 25">
  <path fill="#fff" d="M19.752 17.454a1.125 1.125 0 0 1 0 1.594c-.106.105-2.625 2.579-6.796 2.579-3.16 0-5.564-1.637-7.125-3.174v1.297a1.125 1.125 0 1 1-2.25 0v-4.5a1.125 1.125 0 0 1 1.125-1.125h4.5a1.125 1.125 0 1 1 0 2.25H6.967c1.228 1.343 3.29 3 5.99 3 3.246 0 5.184-1.901 5.203-1.92a1.126 1.126 0 0 1 1.592 0Zm1.454-13.829a1.125 1.125 0 0 0-1.125 1.125v1.3c-1.56-1.538-3.965-3.175-7.125-3.175-4.168 0-6.69 2.474-6.796 2.58a1.127 1.127 0 1 0 1.594 1.593c.017-.022 1.955-1.923 5.202-1.923 2.7 0 4.76 1.657 5.989 3h-2.239a1.125 1.125 0 1 0 0 2.25h4.5a1.125 1.125 0 0 0 1.125-1.125v-4.5a1.125 1.125 0 0 0-1.125-1.125Z"/>
</svg>
