<svg width="24" height="20" viewBox="0 0 24 20" fill="none" xmlns="http://www.w3.org/2000/svg">
<path d="M11.75 18.1807C11.75 18.4127 11.6578 18.6353 11.4937 18.7994C11.3296 18.9635 11.1071 19.0557 10.875 19.0557H2.125C1.66087 19.0557 1.21575 18.8713 0.887563 18.5431C0.559374 18.2149 0.375 17.7698 0.375 17.3057V2.43066C0.375 1.96654 0.559374 1.52142 0.887563 1.19323C1.21575 0.865038 1.66087 0.680664 2.125 0.680664H7.95797C8.33646 0.681603 8.70461 0.804318 9.00797 1.03066L12.042 3.30566H21.375C21.8391 3.30566 22.2842 3.49004 22.6124 3.81823C22.9406 4.14642 23.125 4.59154 23.125 5.05566V8.55566C23.125 8.78773 23.0328 9.01029 22.8687 9.17438C22.7046 9.33848 22.4821 9.43066 22.25 9.43066C22.0179 9.43066 21.7954 9.33848 21.6313 9.17438C21.4672 9.01029 21.375 8.78773 21.375 8.55566V5.05566H12.042C11.6635 5.05473 11.2954 4.93201 10.992 4.70566L7.95797 2.43066H2.125V17.3057H10.875C11.1071 17.3057 11.3296 17.3979 11.4937 17.5619C11.6578 17.726 11.75 17.9486 11.75 18.1807ZM23.6817 13.7816L21.2197 15.8149L21.9689 18.8457C22.01 19.0128 22.001 19.1883 21.9429 19.3503C21.8847 19.5123 21.7802 19.6535 21.6422 19.7564C21.5042 19.8592 21.3389 19.9191 21.1671 19.9285C20.9953 19.9379 20.8245 19.8964 20.6761 19.8093L17.875 18.161L15.0739 19.8093C14.9255 19.8964 14.7547 19.9379 14.5829 19.9285C14.4111 19.9191 14.2458 19.8592 14.1078 19.7564C13.9698 19.6535 13.8653 19.5123 13.8071 19.3503C13.749 19.1883 13.74 19.0128 13.7811 18.8457L14.5303 15.8149L12.0683 13.7816C11.934 13.6706 11.836 13.522 11.7867 13.3549C11.7374 13.1877 11.7391 13.0097 11.7916 12.8436C11.8442 12.6775 11.9451 12.5308 12.0815 12.4224C12.2178 12.314 12.3835 12.2487 12.5572 12.235L15.8209 11.9824L17.0711 9.08395C17.1386 8.92675 17.2508 8.79282 17.3937 8.6987C17.5366 8.60459 17.7039 8.55443 17.875 8.55443C18.0461 8.55443 18.2134 8.60459 18.3563 8.6987C18.4992 8.79282 18.6114 8.92675 18.6789 9.08395L19.9291 11.9824L23.1928 12.235C23.3665 12.2487 23.5322 12.314 23.6685 12.4224C23.8049 12.5308 23.9058 12.6775 23.9584 12.8436C24.0109 13.0097 24.0126 13.1877 23.9633 13.3549C23.914 13.522 23.816 13.6706 23.6817 13.7816ZM20.8959 13.8122L19.2673 13.6864C19.1085 13.6743 18.956 13.6189 18.8262 13.5264C18.6965 13.4339 18.5945 13.3077 18.5312 13.1614L17.875 11.6389L17.2188 13.1614C17.1555 13.3077 17.0535 13.4339 16.9238 13.5264C16.794 13.6189 16.6415 13.6743 16.4827 13.6864L14.8541 13.8122L16.0692 14.8163C16.1965 14.9212 16.2916 15.0599 16.3434 15.2164C16.3953 15.373 16.4018 15.541 16.3623 15.7011L15.9795 17.2455L17.4309 16.3913C17.5655 16.312 17.7188 16.2702 17.875 16.2702C18.0312 16.2702 18.1845 16.312 18.3191 16.3913L19.7705 17.2455L19.3877 15.7011C19.3482 15.541 19.3547 15.373 19.4066 15.2164C19.4584 15.0599 19.5535 14.9212 19.6808 14.8163L20.8959 13.8122Z" fill="#343330"/>
</svg>
