<svg width="19" height="34" viewBox="0 0 19 34" fill="none" xmlns="http://www.w3.org/2000/svg">
<path d="M18.0621 17.9918L3.06208 32.9918C2.92272 33.1311 2.75727 33.2417 2.57518 33.3171C2.39309 33.3925 2.19793 33.4314 2.00083 33.4314C1.80374 33.4314 1.60858 33.3925 1.42649 33.3171C1.2444 33.2417 1.07895 33.1311 0.939583 32.9918C0.800218 32.8524 0.689667 32.687 0.614244 32.5049C0.53882 32.3228 0.5 32.1276 0.5 31.9305C0.5 31.7334 0.53882 31.5383 0.614244 31.3562C0.689667 31.1741 0.800218 31.0086 0.939583 30.8693L14.8802 16.9305L0.939583 2.99177C0.658122 2.71031 0.5 2.32857 0.5 1.93052C0.5 1.53248 0.658122 1.15073 0.939583 0.869272C1.22104 0.587811 1.60279 0.429688 2.00083 0.429688C2.39888 0.429687 2.78062 0.587811 3.06208 0.869272L18.0621 15.8693C18.2015 16.0086 18.3122 16.174 18.3877 16.3561C18.4632 16.5382 18.502 16.7334 18.502 16.9305C18.502 17.1276 18.4632 17.3228 18.3877 17.5049C18.3122 17.687 18.2015 17.8525 18.0621 17.9918Z" fill="#343330"/>
</svg>
