<svg width="14" height="9" viewBox="0 0 14 9" fill="none" xmlns="http://www.w3.org/2000/svg">
<path d="M0.307465 1.94205L6.55746 8.19205C6.61551 8.25016 6.68444 8.29626 6.76031 8.32771C6.83619 8.35916 6.91752 8.37535 6.99965 8.37535C7.08179 8.37535 7.16312 8.35916 7.23899 8.32771C7.31486 8.29626 7.38379 8.25016 7.44184 8.19205L13.6918 1.94205C13.8091 1.82477 13.875 1.66571 13.875 1.49986C13.875 1.33401 13.8091 1.17495 13.6918 1.05767C13.5746 0.940396 13.4155 0.874512 13.2497 0.874512C13.0838 0.874512 12.9247 0.940396 12.8075 1.05767L6.99965 6.86627L1.19184 1.05767C1.13377 0.999603 1.06483 0.95354 0.988962 0.922113C0.913092 0.890687 0.831774 0.874512 0.749652 0.874512C0.66753 0.874512 0.586212 0.890687 0.510342 0.922113C0.434471 0.95354 0.365533 0.999603 0.307465 1.05767C0.249395 1.11574 0.203333 1.18468 0.171906 1.26055C0.14048 1.33642 0.124304 1.41774 0.124304 1.49986C0.124304 1.58198 0.14048 1.6633 0.171906 1.73917C0.203333 1.81504 0.249395 1.88398 0.307465 1.94205Z" fill="#343330"/>
</svg>
