<svg xmlns="http://www.w3.org/2000/svg" width="448" height="683" fill="none" viewBox="0 0 448 683">
  <g clip-path="url(#a)">
    <rect width="448" height="683" fill="#F1F1F1" rx="28"/>
    <path fill="#6100FF" d="M0 0h2153v150H0z"/>
    <path fill="#fff" d="M65.46 101V56.6h8.88V101h-8.88Zm33.305.84c-9.24 0-16.32-6.48-16.32-17.58 0-11.16 7.98-17.64 17.1-17.64 4.2 0 7.32 1.56 9.78 3.72l-4.14 5.64c-1.68-1.44-3.3-2.16-5.1-2.16-5.22 0-8.64 4.08-8.64 10.44 0 6.3 3.48 10.44 8.28 10.44 2.46 0 4.74-1.2 6.6-2.7l3.48 5.82c-3.18 2.76-7.32 4.02-11.04 4.02Zm29.351 0c-8.46 0-16.14-6.48-16.14-17.58 0-11.16 7.68-17.64 16.14-17.64 8.4 0 16.08 6.48 16.08 17.64 0 11.1-7.68 17.58-16.08 17.58Zm0-7.14c4.56 0 7.08-4.14 7.08-10.44 0-6.36-2.52-10.44-7.08-10.44-4.62 0-7.14 4.08-7.14 10.44 0 6.3 2.52 10.44 7.14 10.44Zm23.519 6.3V67.46h7.14l.72 4.44h.18c2.88-2.88 6.36-5.28 10.92-5.28 7.2 0 10.38 5.04 10.38 13.44V101h-8.82V81.2c0-5.28-1.5-7.02-4.74-7.02-2.76 0-4.5 1.32-6.96 3.72V101h-8.82Z"/>
    <path fill="#00C308" d="M95.956 468.875a8.126 8.126 0 1 0 3.11 15.632A8.13 8.13 0 0 0 104.08 477a8.135 8.135 0 0 0-8.125-8.125Zm3.567 6.692-4.375 4.375a.633.633 0 0 1-.884 0l-1.875-1.875a.624.624 0 1 1 .884-.884l1.433 1.433 3.933-3.933a.633.633 0 0 1 .884 0 .623.623 0 0 1 0 .884Z"/>
    <circle cx="63.5" cy="438.77" r="11" fill="#00C308"/>
    <path fill="#FFD542" d="M97.304 430.728c.754-1.278 2.638-1.278 3.392 0l9.539 16.167c.753 1.278-.189 2.875-1.696 2.875H89.461c-1.507 0-2.45-1.597-1.696-2.875l9.54-16.167Z"/>
    <path stroke="#FF6D6D" stroke-linecap="round" stroke-linejoin="round" stroke-width="4" d="m139.5 432.77-14 14m0-14 14 14"/>
    <path fill="#FF6D6D" fill-rule="evenodd" d="m134.38 479.787-4.7-8.305c-.587-1.013-1.704-1.641-2.917-1.641-1.212 0-2.329.628-2.916 1.641l-4.775 8.297a3.056 3.056 0 0 0 .062 3.144c.6.964 1.688 1.556 2.863 1.557h9.45c1.173 0 2.261-.589 2.862-1.552a3.056 3.056 0 0 0 .071-3.141Zm-8.333-4.582a.61.61 0 0 1 .625-.597c.345 0 .625.267.625.597v2.458c0 .329-.28.597-.625.597a.611.611 0 0 1-.625-.597v-2.458Zm.633 5.369c.345 0 .625-.267.625-.596l-.008-.008c0-.325-.277-.589-.617-.589a.62.62 0 0 0-.625.597c0 .329.28.596.625.596Z" clip-rule="evenodd"/>
    <path fill="#3F3F3F" d="M62.958 474.083a.633.633 0 0 1-.625-.625v-4.166a.624.624 0 1 1 1.25 0v4.166a.633.633 0 0 1-.625.625Zm0 11.667a.634.634 0 0 1-.625-.625v-4.167a.625.625 0 0 1 1.25 0v4.167a.634.634 0 0 1-.625.625Zm-2.15-10.992a.624.624 0 0 1-.517-.266l-2.383-3.409a.625.625 0 0 1 .15-.875.633.633 0 0 1 .833.159l2.4 3.408a.617.617 0 0 1-.508.983h.025Zm6.692 9.559a.628.628 0 0 1-.517-.267l-2.359-3.408a.625.625 0 0 1 1.026-.717l2.383 3.408a.617.617 0 0 1-.508.984h-.026Zm-8.067-7.767a.716.716 0 0 1-.217 0l-3.908-1.458a.635.635 0 0 1-.375-.834.617.617 0 0 1 .833-.366l3.858 1.45a.624.624 0 0 1-.216 1.208h.025Zm10.967 3.992a.669.669 0 0 1-.217-.042l-3.892-1.425a.625.625 0 0 1-.375-.833.634.634 0 0 1 .834-.375l3.908 1.425a.63.63 0 0 1 .375.833.626.626 0 0 1-.633.417Zm-15.092-.659a.625.625 0 0 1-.158-1.233l4.025-1.075a.626.626 0 0 1 .766.442.633.633 0 0 1-.442.766l-4.041 1.075a.547.547 0 0 1-.15.025Zm11.275-3.016a.635.635 0 0 1-.608-.467.626.626 0 0 1 .441-.767l4.042-1.075a.625.625 0 1 1 .325 1.209l-4.025 1.075a.546.546 0 0 1-.175.025Zm-8.717 7.008a.625.625 0 0 1-.475-1.025l2.675-3.142a.642.642 0 0 1 .883-.075.624.624 0 0 1 .076.884l-2.675 3.158a.618.618 0 0 1-.484.2Zm7.5-8.917a.602.602 0 0 1-.4-.141.627.627 0 0 1-.075-.884l2.675-3.191a.624.624 0 0 1 .883-.075.616.616 0 0 1 .076.833l-2.675 3.208a.64.64 0 0 1-.484.25Z"/>
    <path fill="#6100FF" d="M62.958 474.083a.633.633 0 0 1-.625-.625v-4.166a.624.624 0 1 1 1.25 0v4.166a.633.633 0 0 1-.625.625Z"/>
    <path fill="#C099FF" d="M62.958 485.75a.634.634 0 0 1-.625-.625v-4.167a.625.625 0 0 1 1.25 0v4.167a.634.634 0 0 1-.625.625Z"/>
    <path fill="#8235FF" d="M60.808 474.758a.624.624 0 0 1-.517-.266l-2.383-3.409a.625.625 0 0 1 .15-.875.633.633 0 0 1 .833.159l2.4 3.408a.617.617 0 0 1-.508.983h.025Z"/>
    <path fill="#C8A7FF" d="M67.5 484.317a.628.628 0 0 1-.517-.267l-2.359-3.408a.625.625 0 0 1 1.026-.717l2.383 3.408a.617.617 0 0 1-.508.984h-.026Z"/>
    <path fill="#9757FF" d="M59.433 476.55a.716.716 0 0 1-.217 0l-3.908-1.458a.635.635 0 0 1-.375-.834.617.617 0 0 1 .833-.366l3.858 1.45a.624.624 0 0 1-.216 1.208h.025Z"/>
    <path fill="#D5BBFF" d="M70.4 480.542a.669.669 0 0 1-.217-.042l-3.892-1.425a.625.625 0 0 1-.375-.833.634.634 0 0 1 .834-.375l3.908 1.425a.63.63 0 0 1 .375.833.626.626 0 0 1-.633.417Z"/>
    <path fill="#A167FF" d="M55.308 479.883a.625.625 0 0 1-.158-1.233l4.025-1.075a.626.626 0 0 1 .766.442.633.633 0 0 1-.442.766l-4.041 1.075a.547.547 0 0 1-.15.025Z"/>
    <path fill="#E2D0FF" d="M66.583 476.867a.635.635 0 0 1-.608-.467.626.626 0 0 1 .441-.767l4.042-1.075a.625.625 0 1 1 .325 1.209l-4.025 1.075a.546.546 0 0 1-.175.025Z"/>
    <path fill="#B07FFF" d="M57.866 483.875a.625.625 0 0 1-.475-1.025l2.675-3.142a.642.642 0 0 1 .883-.075.624.624 0 0 1 .076.884l-2.675 3.158a.618.618 0 0 1-.484.2Z"/>
    <path fill="#EADDFF" d="M65.366 474.958a.602.602 0 0 1-.4-.141.627.627 0 0 1-.075-.884l2.675-3.191a.624.624 0 0 1 .883-.075.616.616 0 0 1 .076.833l-2.675 3.208a.64.64 0 0 1-.484.25Z"/>
    <path fill="#6100FF" fill-rule="evenodd" d="M37.868 371.7c-.873 0-1.523 3.409-1.523 7.259 0 1.002-.152 1.814-.339 1.814-.187 0-.338-.812-.338-1.814 0-6.172 1.016-10.888 2.2-10.888 1.183 0 2.2 4.716 2.2 10.888 0 1.002-.152 1.814-.34 1.814-.186 0-.338-.812-.338-1.814 0-3.85-.65-7.259-1.522-7.259Zm-1.862 18.193c.187 0 .339.812.339 1.814 0 3.85.65 7.258 1.523 7.258.872 0 1.522-3.408 1.522-7.258 0-1.002.152-1.814.339-1.814.187 0 .338.812.338 1.814 0 6.172-1.016 10.887-2.2 10.887-1.183 0-2.199-4.715-2.199-10.887 0-1.002.151-1.814.338-1.814Zm-1.377-4.398c0-.989.153-1.791.34-1.791h5.796c.188 0 .34.802.34 1.791 0 .99-.152 1.792-.34 1.792H34.97c-.188 0-.341-.802-.341-1.792Z" clip-rule="evenodd"/>
    <path fill="#6100FF" fill-rule="evenodd" d="M37.898 391.847c.185 0 .336.795.336 1.776v6.218c0 .981-.15 1.776-.336 1.776-.186 0-.337-.795-.337-1.776v-6.218c0-.981.151-1.776.337-1.776Zm-2.133-23.231c.13-.726.34-.726.47 0l.497 2.792c.13.727.13 1.905 0 2.632-.13.727-.34.727-.47 0l-.497-2.792c-.13-.726-.13-1.905 0-2.632Zm4.205 0c.13.727.13 1.906 0 2.632l-.498 2.792c-.13.727-.34.727-.469 0-.13-.727-.13-1.905 0-2.632l.498-2.792c.13-.726.34-.726.469 0Zm-3.238 28.987c.13.727.13 1.905 0 2.632l-.498 2.791c-.13.727-.34.727-.469 0-.13-.727-.13-1.905 0-2.632l.498-2.791c.13-.727.34-.727.469 0Zm2.271 0c.13-.727.34-.727.47 0l.497 2.791c.13.727.13 1.905 0 2.632-.13.727-.34.727-.47 0l-.497-2.791c-.13-.727-.13-1.905 0-2.632Z" clip-rule="evenodd"/>
    <path fill="#00C308" d="M125.5 512.375a17.878 17.878 0 0 0-16.514 11.035 17.878 17.878 0 0 0 3.874 19.48 17.878 17.878 0 0 0 30.515-12.64 17.895 17.895 0 0 0-17.875-17.875Zm7.848 14.723-9.625 9.625a1.38 1.38 0 0 1-1.5.298 1.38 1.38 0 0 1-.446-.298l-4.125-4.125a1.376 1.376 0 0 1 1.946-1.946l3.152 3.154 8.652-8.654a1.374 1.374 0 0 1 1.499-.298 1.374 1.374 0 0 1 .447 2.244Z"/>
    <path fill="#3F3F3F" d="m132.812 594.348-6.99-6.622c-.656-.622-.216-1.726.688-1.726h13.98c.904 0 1.344 1.104.688 1.726l-6.99 6.622a1 1 0 0 1-1.376 0Z"/>
    <circle cx="163.5" cy="582.551" r="1.5" fill="#000"/>
    <circle cx="163.5" cy="589.551" r="1.5" fill="#000"/>
    <circle cx="163.5" cy="596.551" r="1.5" fill="#000"/>
    <path fill="#6100FF" d="M202.566 589.551c0 .199-.079.39-.219.531a.754.754 0 0 1-.531.219h-7.5v7.5c0 .199-.079.39-.219.531a.754.754 0 0 1-1.061 0 .75.75 0 0 1-.22-.531v-7.5h-7.5a.752.752 0 0 1-.75-.75.749.749 0 0 1 .75-.75h7.5v-7.5a.749.749 0 0 1 .75-.75.75.75 0 0 1 .75.75v7.5h7.5a.75.75 0 0 1 .75.75ZM74 384.25a1.502 1.502 0 0 1-1.5 1.5H68v4.5a1.502 1.502 0 0 1-2.56 1.061 1.502 1.502 0 0 1-.44-1.061v-4.5h-4.5a1.5 1.5 0 0 1 0-3H65v-4.5a1.502 1.502 0 0 1 2.561-1.061c.281.282.44.663.44 1.061v4.5h4.5a1.5 1.5 0 0 1 1.5 1.5Zm14.562 22.061a1.5 1.5 0 0 1-2.123 0l-9.386-9.388a16.519 16.519 0 0 1-22.774-1.555 16.52 16.52 0 1 1 24.895-.566l9.388 9.387a1.49 1.49 0 0 1 .44 1.061 1.498 1.498 0 0 1-.44 1.061ZM66.5 397.75a13.503 13.503 0 0 0 12.473-8.334A13.5 13.5 0 1 0 53 384.25a13.513 13.513 0 0 0 13.5 13.5Z"/>
    <path fill="#343330" d="M114 378.071v-3a3 3 0 0 1 3-3h9.999c.649.002 1.28.212 1.8.6l5.601 4.2a1.51 1.51 0 0 1 .585.988 1.498 1.498 0 0 1-2.385 1.412l-5.601-4.2H117v3a1.5 1.5 0 1 1-3 0Zm12 22.5h-9v-1.5a1.499 1.499 0 0 0-2.561-1.06 1.499 1.499 0 0 0-.439 1.06v1.617a2.888 2.888 0 0 0 2.884 2.883H126a1.503 1.503 0 0 0 1.5-1.5 1.499 1.499 0 0 0-1.5-1.5Zm13.5 0h-6a1.5 1.5 0 0 0 0 3h6a1.503 1.503 0 0 0 1.5-1.5 1.499 1.499 0 0 0-1.5-1.5Zm12-10.5a1.5 1.5 0 0 0-1.5 1.5v9h-3a1.5 1.5 0 0 0 0 3h3.167a2.837 2.837 0 0 0 2.833-2.833v-9.167a1.499 1.499 0 0 0-1.5-1.5Zm-1.5-13.5h-9a1.5 1.5 0 0 0 0 3h9v4.5a1.5 1.5 0 1 0 3 0v-4.5a3 3 0 0 0-3-3Zm-34.5 16.5a1.503 1.503 0 0 0 1.5-1.5v-6a1.499 1.499 0 0 0-2.561-1.06 1.499 1.499 0 0 0-.439 1.06v6a1.5 1.5 0 0 0 1.5 1.5Z"/>
    <rect width="40" height="40" x="45.956" y="510.25" fill="#6100FF" rx="20"/>
    <path fill="#fff" d="M72.752 535.454a1.13 1.13 0 0 1 .245 1.228 1.13 1.13 0 0 1-.245.366c-.106.105-2.625 2.579-6.796 2.579-3.16 0-5.564-1.637-7.125-3.174v1.297a1.123 1.123 0 0 1-1.125 1.125 1.125 1.125 0 0 1-1.125-1.125v-4.5a1.123 1.123 0 0 1 1.125-1.125h4.5a1.125 1.125 0 0 1 0 2.25h-2.239c1.228 1.342 3.29 3 5.99 3 3.246 0 5.184-1.901 5.203-1.921a1.118 1.118 0 0 1 1.592 0Zm1.454-13.829a1.125 1.125 0 0 0-1.125 1.125v1.299c-1.56-1.537-3.965-3.174-7.125-3.174-4.168 0-6.69 2.474-6.796 2.579a1.127 1.127 0 1 0 1.594 1.594c.017-.022 1.956-1.923 5.202-1.923 2.7 0 4.76 1.658 5.989 3h-2.239a1.125 1.125 0 0 0 0 2.25h4.5a1.125 1.125 0 0 0 1.125-1.125v-4.5a1.123 1.123 0 0 0-1.125-1.125Z"/>
    <rect width="51" height="65" x="212.5" y="203.5" stroke="#9747FF" stroke-dasharray="10 5" rx="4.5"/>
    <path fill="#3F3F3F" d="m238.811 221.75 2.47-2.469a.753.753 0 0 0 .163-.818.742.742 0 0 0-.406-.406.747.747 0 0 0-.818.163l-2.47 2.47-2.469-2.47a.75.75 0 1 0-1.061 1.061l2.47 2.469-2.47 2.47a.742.742 0 0 0-.22.53.747.747 0 0 0 .75.751.753.753 0 0 0 .531-.22l2.469-2.47 2.47 2.47a.742.742 0 0 0 .53.22.753.753 0 0 0 .531-1.281l-2.47-2.47Z"/>
    <path fill="#F2EBFF" d="M237.75 238.25a9.756 9.756 0 0 0-9.008 6.019A9.75 9.75 0 1 0 247.5 248a9.76 9.76 0 0 0-9.75-9.75Zm3.531 12.219a.754.754 0 0 1 0 1.062.754.754 0 0 1-1.062 0l-2.469-2.471-2.469 2.471a.754.754 0 0 1-1.062 0 .754.754 0 0 1 0-1.062L236.69 248l-2.471-2.469a.754.754 0 0 1 0-1.062.754.754 0 0 1 1.062 0l2.469 2.471 2.469-2.471a.754.754 0 0 1 1.062 0 .754.754 0 0 1 0 1.062L238.81 248l2.471 2.469Z"/>
    <path fill="#3F3F3F" d="m238.81 248 2.471-2.469a.754.754 0 0 0 0-1.062.754.754 0 0 0-1.062 0l-2.469 2.471-2.469-2.471a.754.754 0 0 0-1.062 0 .754.754 0 0 0 0 1.062L236.69 248l-2.471 2.469a.754.754 0 0 0 0 1.062.754.754 0 0 0 1.062 0l2.469-2.471 2.469 2.471a.754.754 0 0 0 1.062 0 .754.754 0 0 0 0-1.062L238.81 248ZM73.969 588.372a1.508 1.508 0 0 0-1.219-.622h-1.5v-1.5a1.502 1.502 0 0 0-1.5-1.5h-6.5l-2.6-1.95a1.513 1.513 0 0 0-.9-.3h-5a1.501 1.501 0 0 0-1.5 1.5v13.5a.748.748 0 0 0 .75.75h16.79a.75.75 0 0 0 .712-.513l2.671-8.013a1.503 1.503 0 0 0-.204-1.352ZM59.75 584l2.6 1.95c.26.194.575.299.9.3h6.499v1.5H57.54a1.5 1.5 0 0 0-1.422 1.026l-1.368 4.102V584h5Z"/>
    <path fill="#969696" d="m107.031 585.719-5.25-5.25a.77.77 0 0 0-.531-.219h-9a1.501 1.501 0 0 0-1.5 1.5v16.5a1.502 1.502 0 0 0 1.5 1.5h13.5a1.503 1.503 0 0 0 1.5-1.5v-12a.742.742 0 0 0-.219-.531ZM102 582.81l2.69 2.69H102v-2.69Zm3.75 15.44h-13.5v-16.5h8.25v4.5c0 .199.079.39.22.53.14.141.331.22.53.22h4.5v11.25Z"/>
    <path fill="#6100FF" d="M244.707 593.293A.987.987 0 0 1 245 594a1.006 1.006 0 0 1-.293.708l-10 10a1.01 1.01 0 0 1-1.09.217 1.007 1.007 0 0 1-.325-.217l-10-10a1.001 1.001 0 0 1 1.415-1.415l9.293 9.293 9.292-9.293a.991.991 0 0 1 .708-.294.992.992 0 0 1 .707.294Zm-11.415 1.415a1.007 1.007 0 0 0 1.091.217c.121-.051.231-.124.324-.217l10-10a1.001 1.001 0 0 0-1.415-1.415L234 592.586l-9.293-9.293a1 1 0 0 0-1.708.707c0 .265.105.52.293.708l10 10Z"/>
    <rect width="71" height="123" x="49.5" y="203.5" stroke="#9747FF" stroke-dasharray="10 5" rx="4.5"/>
    <path fill="#6100FF" d="m98.415 233.171-7.586-7.585a2.001 2.001 0 0 0-2.828 0l-6.704 6.725c-1.333-.417-4.375-.921-7.55 1.643a2 2 0 0 0-.162 2.972l6.04 6.038-5.332 5.329a.999.999 0 0 0 0 1.415 1.003 1.003 0 0 0 1.415 0l5.329-5.333 6.036 6.036a1.99 1.99 0 0 0 1.415.589h.141a1.988 1.988 0 0 0 1.455-.791c2.455-3.263 2.219-5.915 1.649-7.5L98.417 236a1.998 1.998 0 0 0-.002-2.829ZM97 234.586l-7.158 7.183a.998.998 0 0 0-.186 1.152c1.182 2.367-.226 4.824-1.168 6.078L75.001 235.51c1.51-1.217 2.954-1.539 4.06-1.539a5.022 5.022 0 0 1 2.04.404 1 1 0 0 0 1.157-.189L89.415 227 97 234.585v.001ZM98.417 292l-6.684 6.706c.57 1.584.806 4.236-1.649 7.5a1.984 1.984 0 0 1-1.459.794h-.14a2.012 2.012 0 0 1-1.416-.586l-6.032-6.039-5.33 5.332A.999.999 0 0 1 74 305c0-.265.105-.52.293-.708l5.332-5.328-6.037-6.038a2.006 2.006 0 0 1-.582-1.522 2.002 2.002 0 0 1 .744-1.45c3.178-2.564 6.22-2.06 7.55-1.643l6.7-6.724a2.003 2.003 0 0 1 2.83 0l7.585 7.585a2.002 2.002 0 0 1 .002 2.828Z"/>
    <rect width="71" height="123" x="124.5" y="203.5" stroke="#9747FF" stroke-dasharray="10 5" rx="4.5"/>
    <path fill="#6100FF" d="m173.707 236.294-10-10a1.002 1.002 0 0 0-1.538.151.996.996 0 0 0-.169.555v5.044c-3.243.277-6.824 1.865-9.77 4.364-3.548 3.01-5.756 6.888-6.22 10.921a1.5 1.5 0 0 0 2.585 1.197c1.375-1.463 6.267-6.092 13.405-6.5V247a1.002 1.002 0 0 0 1.196.98.989.989 0 0 0 .511-.274l10-10a.998.998 0 0 0 0-1.412ZM164 244.586V241a.997.997 0 0 0-1-1c-3.51 0-6.929.916-10.161 2.725a24.506 24.506 0 0 0-4.572 3.315c.725-2.98 2.553-5.814 5.257-8.107 2.902-2.462 6.445-3.933 9.476-3.933a1 1 0 0 0 1-1v-3.585l7.586 7.585-7.586 7.586Zm11.707 47.121-10 10a.995.995 0 0 1-1.539-.151A1 1 0 0 1 164 301v-4.971c-7.138.405-12.031 5.033-13.405 6.5a1.503 1.503 0 0 1-2.585-1.198c.464-4.032 2.672-7.911 6.22-10.921 2.946-2.5 6.527-4.086 9.77-4.364V281a.998.998 0 0 1 1.707-.708l10 10a.991.991 0 0 1 .294.708.992.992 0 0 1-.294.707Zm78.184 94.904c-1.05 8.033-8.995 14.543-17.098 14.543h-11.672a2.818 2.818 0 0 1-2.485-4.148l.472-.892a2.763 2.763 0 0 0 0-2.8 16.818 16.818 0 1 1 30.87-6.703h-.087Zm25.816 213.682A.987.987 0 0 1 280 601a1.006 1.006 0 0 1-.293.708 1.01 1.01 0 0 1-.707.293 1.015 1.015 0 0 1-.708-.293l-10-10a1.006 1.006 0 0 1 0-1.415l10-10a1 1 0 1 1 1.415 1.415L270.414 591l9.293 9.293Zm14.354-215.232a1.502 1.502 0 0 1-1.638.327 1.513 1.513 0 0 1-.487-.327l-6.436-6.436V397a1.503 1.503 0 0 1-1.5 1.5 1.503 1.503 0 0 1-1.5-1.5v-18.375l-6.439 6.436a1.502 1.502 0 1 1-2.125-2.125l9-9a1.51 1.51 0 0 1 1.063-.441 1.494 1.494 0 0 1 1.062.441l9 9a1.506 1.506 0 0 1 .441 1.063 1.502 1.502 0 0 1-.441 1.062Z"/>
  </g>
  <defs>
    <clipPath id="a">
      <rect width="448" height="683" fill="#fff" rx="28"/>
    </clipPath>
  </defs>
</svg>
