<svg xmlns="http://www.w3.org/2000/svg" width="20" height="20" fill="none" viewBox="0 0 20 20">
  <path fill="#3F3F3F" d="M9.958 7.083a.633.633 0 0 1-.625-.625V2.291a.625.625 0 0 1 1.25 0v4.167a.633.633 0 0 1-.625.625Zm0 11.667a.633.633 0 0 1-.625-.625v-4.167a.625.625 0 1 1 1.25 0v4.167a.633.633 0 0 1-.625.625ZM7.808 7.758a.625.625 0 0 1-.517-.266L4.908 4.083a.625.625 0 0 1 .15-.875.633.633 0 0 1 .833.158l2.4 3.409a.617.617 0 0 1-.508.983h.025Zm6.692 9.559a.625.625 0 0 1-.517-.267l-2.359-3.409a.625.625 0 1 1 1.025-.716l2.384 3.408a.617.617 0 0 1-.508.984h-.026ZM6.433 9.55a.684.684 0 0 1-.217 0L2.308 8.09a.633.633 0 0 1-.375-.833.617.617 0 0 1 .833-.367l3.859 1.45a.625.625 0 0 1-.217 1.209h.025ZM17.4 13.541a.666.666 0 0 1-.217-.041l-3.892-1.425a.625.625 0 0 1-.375-.833.633.633 0 0 1 .833-.376l3.909 1.425a.634.634 0 0 1 .375.834.625.625 0 0 1-.634.416Zm-15.092-.658a.625.625 0 0 1-.158-1.233l4.025-1.075a.625.625 0 0 1 .766.442.633.633 0 0 1-.441.766l-4.042 1.075a.579.579 0 0 1-.15.025Zm11.275-3.016a.633.633 0 0 1-.608-.467.625.625 0 0 1 .441-.767l4.042-1.075a.626.626 0 0 1 .325 1.209l-4.025 1.075a.525.525 0 0 1-.175.024Zm-8.717 7.008a.625.625 0 0 1-.475-1.025l2.675-3.142a.642.642 0 0 1 .884-.075.625.625 0 0 1 .075.884L5.35 16.675a.616.616 0 0 1-.484.2Zm7.5-8.917a.6.6 0 0 1-.4-.142.625.625 0 0 1-.075-.883l2.675-3.192a.625.625 0 0 1 .883-.075.617.617 0 0 1 .075.834L12.85 7.708a.642.642 0 0 1-.484.25Z"/>
  <path fill="#6100FF" d="M9.958 7.083a.633.633 0 0 1-.625-.625V2.291a.625.625 0 0 1 1.25 0v4.167a.633.633 0 0 1-.625.625Z"/>
  <path fill="#C099FF" d="M9.958 18.75a.633.633 0 0 1-.625-.625v-4.167a.625.625 0 1 1 1.25 0v4.167a.633.633 0 0 1-.625.625Z"/>
  <path fill="#8235FF" d="M7.808 7.758a.625.625 0 0 1-.517-.266L4.908 4.083a.625.625 0 0 1 .15-.875.633.633 0 0 1 .833.158l2.4 3.409a.617.617 0 0 1-.508.983h.025Z"/>
  <path fill="#C8A7FF" d="M14.5 17.317a.625.625 0 0 1-.517-.267l-2.359-3.409a.625.625 0 1 1 1.025-.716l2.384 3.408a.617.617 0 0 1-.508.984h-.026Z"/>
  <path fill="#9757FF" d="M6.433 9.55a.684.684 0 0 1-.217 0L2.308 8.09a.633.633 0 0 1-.375-.833.617.617 0 0 1 .833-.367l3.859 1.45a.625.625 0 0 1-.217 1.209h.025Z"/>
  <path fill="#D5BBFF" d="M17.4 13.541a.666.666 0 0 1-.217-.041l-3.892-1.425a.625.625 0 0 1-.375-.833.633.633 0 0 1 .833-.376l3.909 1.425a.634.634 0 0 1 .375.834.625.625 0 0 1-.634.416Z"/>
  <path fill="#A167FF" d="M2.308 12.883a.625.625 0 0 1-.158-1.233l4.025-1.075a.625.625 0 0 1 .766.442.633.633 0 0 1-.441.766l-4.042 1.075a.579.579 0 0 1-.15.025Z"/>
  <path fill="#E2D0FF" d="M13.583 9.867a.633.633 0 0 1-.608-.467.625.625 0 0 1 .441-.767l4.042-1.075a.626.626 0 0 1 .325 1.209l-4.025 1.075a.525.525 0 0 1-.175.024Z"/>
  <path fill="#B07FFF" d="M4.866 16.875a.625.625 0 0 1-.475-1.025l2.675-3.142a.642.642 0 0 1 .884-.075.625.625 0 0 1 .075.884L5.35 16.675a.616.616 0 0 1-.484.2Z"/>
  <path fill="#EADDFF" d="M12.366 7.958a.6.6 0 0 1-.4-.142.625.625 0 0 1-.075-.883l2.675-3.192a.625.625 0 0 1 .883-.075.617.617 0 0 1 .075.834L12.85 7.708a.642.642 0 0 1-.484.25Z"/>
</svg>
