<svg width="381" height="42" viewBox="0 0 381 42" fill="none" xmlns="http://www.w3.org/2000/svg">
<path d="M51.0945 4.98145H71.5047V8.98535H55.0984V16.9932H69.1023V20.9971H55.0984V32.9893H51.0945V4.98145ZM80.7141 4.98145V28.9854H95.1086V32.9893H76.7102V4.98145H80.7141ZM111.916 4.98145L122.716 32.9893H118.712L116.232 26.5439H103.595L101.115 32.9893H97.1109L107.912 4.98145H111.916ZM105.119 22.54H114.689L109.923 10.1963L105.119 22.54ZM131.125 32.9893L123.117 4.98145H127.121L133.332 27.2666L139.523 4.98145H143.527L149.719 27.2666L155.93 4.98145H159.934L151.926 32.9893H147.531L141.535 11.9932L135.52 32.9893H131.125ZM178.577 28.9854C180.439 28.9854 181.871 28.484 182.873 27.4814C183.876 26.4788 184.377 25.0465 184.377 23.1846V14.7861C184.377 13.8747 184.247 13.0609 183.987 12.3447C183.726 11.6286 183.342 11.0231 182.834 10.5283C182.34 10.0205 181.734 9.63639 181.018 9.37598C180.302 9.11556 179.488 8.98535 178.577 8.98535H168.342V28.9854H178.577ZM164.338 32.9893V4.98145H178.577C180.074 4.98145 181.422 5.21582 182.62 5.68457C183.83 6.1403 184.859 6.79785 185.705 7.65723C186.565 8.50358 187.222 9.53223 187.678 10.7432C188.147 11.9541 188.381 13.3018 188.381 14.7861V23.1846C188.381 24.6689 188.147 26.0166 187.678 27.2275C187.222 28.4385 186.565 29.4736 185.705 30.333C184.859 31.1794 183.83 31.8369 182.62 32.3057C181.422 32.7614 180.074 32.9893 178.577 32.9893H164.338ZM194.407 4.98145H214.817V8.98535H198.411V16.9932H212.415V20.9971H198.411V28.9854H214.817V32.9893H194.407V4.98145ZM218.011 4.98145H240.413V8.98535H231.214V32.9893H227.21V8.98535H218.011V4.98145ZM244.818 4.98145H265.228V8.98535H248.822V16.9932H262.826V20.9971H248.822V28.9854H265.228V32.9893H244.818V4.98145ZM270.824 8.98535C270.824 8.43848 270.928 7.92415 271.137 7.44238C271.345 6.94759 271.632 6.52441 271.996 6.17285C272.361 5.80827 272.784 5.52181 273.266 5.31348C273.76 5.09212 274.281 4.98145 274.828 4.98145H290.023C290.57 4.98145 291.085 5.09212 291.566 5.31348C292.061 5.52181 292.491 5.80827 292.855 6.17285C293.22 6.52441 293.507 6.94759 293.715 7.44238C293.923 7.92415 294.027 8.43848 294.027 8.98535V12.5986H290.023V8.98535H274.828V28.9854H290.023V25.3916H294.027V28.9854C294.027 29.5322 293.923 30.0531 293.715 30.5479C293.507 31.0296 293.22 31.4528 292.855 31.8174C292.491 32.182 292.061 32.4684 291.566 32.6768C291.085 32.8851 290.57 32.9893 290.023 32.9893H274.828C274.281 32.9893 273.76 32.8851 273.266 32.6768C272.784 32.4684 272.361 32.182 271.996 31.8174C271.632 31.4528 271.345 31.0296 271.137 30.5479C270.928 30.0531 270.824 29.5322 270.824 28.9854V8.98535ZM297.631 4.98145H320.034V8.98535H310.834V32.9893H306.83V8.98535H297.631V4.98145ZM348.442 28.9854C348.442 29.5322 348.338 30.0531 348.13 30.5479C347.921 31.0296 347.635 31.4528 347.27 31.8174C346.906 32.182 346.476 32.4684 345.981 32.6768C345.499 32.8851 344.985 32.9893 344.438 32.9893H328.442C327.895 32.9893 327.374 32.8851 326.88 32.6768C326.398 32.4684 325.975 32.182 325.61 31.8174C325.246 31.4528 324.959 31.0296 324.751 30.5479C324.542 30.0531 324.438 29.5322 324.438 28.9854V8.98535C324.438 8.43848 324.542 7.92415 324.751 7.44238C324.959 6.94759 325.246 6.52441 325.61 6.17285C325.975 5.80827 326.398 5.52181 326.88 5.31348C327.374 5.09212 327.895 4.98145 328.442 4.98145H344.438C344.985 4.98145 345.499 5.09212 345.981 5.31348C346.476 5.52181 346.906 5.80827 347.27 6.17285C347.635 6.52441 347.921 6.94759 348.13 7.44238C348.338 7.92415 348.442 8.43848 348.442 8.98535V28.9854ZM328.442 8.98535V28.9854H344.438V8.98535H328.442ZM377.378 14.9814C377.378 18.8877 375.711 21.1143 372.378 21.6611L377.652 32.9893H373.218L368.023 21.7979H359.253V32.9893H355.249V4.98145H370.581C375.112 4.98145 377.378 7.25358 377.378 11.7979V14.9814ZM359.253 17.7939H370.366C371.434 17.7939 372.202 17.5596 372.671 17.0908C373.14 16.6221 373.374 15.8538 373.374 14.7861V11.9932C373.374 10.9255 373.14 10.1572 372.671 9.68848C372.202 9.21973 371.434 8.98535 370.366 8.98535H359.253V17.7939Z" fill="black"/>
<path d="M7.93359 11.8924C7.93359 6.42928 12.8058 2 18.8152 2C24.8246 2 29.6968 6.42928 29.6968 11.8924" stroke="#6100FF" stroke-width="3.95695" stroke-miterlimit="10" strokeLinecap="round"/>
<path d="M29.6968 25.7417C29.6968 31.2048 24.8246 35.6341 18.8152 35.6341C12.8058 35.6341 7.93359 31.2048 7.93359 25.7417" stroke="#6100FF" stroke-width="3.95695" stroke-miterlimit="10" strokeLinecap="round"/>
<path d="M35.6341 18.8169H30.4671H7.16696H2" stroke="#6100FF" stroke-width="3.95695" stroke-miterlimit="10" strokeLinecap="round"/>
<path d="M18.8164 34.6449V27.7202" stroke="#6100FF" stroke-width="3.95695" stroke-miterlimit="10" strokeLinecap="round"/>
<path d="M7.93359 2L10.9013 4.96771" stroke="#6100FF" stroke-width="3.95695" stroke-miterlimit="10" strokeLinecap="round"/>
<path d="M29.6982 2L26.7305 4.96771" stroke="#6100FF" stroke-width="3.95695" stroke-miterlimit="10" strokeLinecap="round"/>
<path d="M7.93359 36.6235L10.9013 33.6558" stroke="#6100FF" stroke-width="3.95695" stroke-miterlimit="10" strokeLinecap="round"/>
<path d="M29.6982 36.6235L26.7305 33.6558" stroke="#6100FF" stroke-width="3.95695" stroke-miterlimit="10" strokeLinecap="round"/>
</svg>
