<svg xmlns="http://www.w3.org/2000/svg" width="25" height="24" fill="none" viewBox="0 0 25 24">
  <path fill="#F2EBFF" d="M12.75 2.25A9.75 9.75 0 1 0 22.5 12a9.76 9.76 0 0 0-9.75-9.75Zm3.53 12.22a.75.75 0 1 1-1.06 1.06l-2.47-2.47-2.47 2.47a.75.75 0 1 1-1.06-1.06L11.69 12 9.22 9.53a.75.75 0 0 1 1.06-1.06l2.47 2.47 2.47-2.47a.751.751 0 0 1 1.06 1.06L13.81 12l2.47 2.47Z"/>
  <path fill="#3F3F3F" d="m13.81 12 2.47-2.47a.75.75 0 1 0-1.06-1.06l-2.47 2.47-2.47-2.47a.75.75 0 1 0-1.06 1.06L11.69 12l-2.47 2.47a.75.75 0 0 0 1.06 1.06l2.47-2.47 2.47 2.47a.75.75 0 1 0 1.06-1.06L13.81 12Z"/>
</svg>
