<svg xmlns="http://www.w3.org/2000/svg" width="32" height="32" fill="none" viewBox="0 0 32 32">
  <path fill="#6100FF" d="m29.416 10.171-7.587-7.585a2 2 0 0 0-2.829 0l-6.703 6.725c-1.333-.417-4.375-.92-7.55 1.643a2 2 0 0 0-.162 2.972l6.04 6.038-5.332 5.329a1 1 0 1 0 1.415 1.415l5.329-5.333 6.036 6.036a1.998 1.998 0 0 0 1.415.59h.141a1.993 1.993 0 0 0 1.455-.792c2.455-3.263 2.219-5.915 1.649-7.5L29.417 13a2 2 0 0 0-.002-2.829ZM28 11.586l-7.158 7.183a1.001 1.001 0 0 0-.186 1.152c1.182 2.367-.226 4.824-1.168 6.078L6 12.51c1.51-1.217 2.955-1.539 4.06-1.539a5.017 5.017 0 0 1 2.042.404 1.001 1.001 0 0 0 1.156-.189L20.416 4 28 11.585v.001Z"/>
</svg>
