<svg width="23" height="22" viewBox="0 0 23 22" fill="none" xmlns="http://www.w3.org/2000/svg">
<path d="M12.625 6.1807V10.9352L16.5756 13.3054C16.7746 13.4249 16.918 13.6186 16.9742 13.8438C17.0304 14.069 16.9948 14.3073 16.8753 14.5063C16.7558 14.7053 16.5621 14.8487 16.3369 14.9049C16.1117 14.9611 15.8734 14.9255 15.6744 14.806L11.2994 12.181C11.1699 12.1032 11.0627 11.9932 10.9884 11.8617C10.914 11.7303 10.875 11.5818 10.875 11.4307V6.1807C10.875 5.94863 10.9672 5.72607 11.1313 5.56198C11.2954 5.39788 11.5179 5.3057 11.75 5.3057C11.9821 5.3057 12.2046 5.39788 12.3687 5.56198C12.5328 5.72607 12.625 5.94863 12.625 6.1807ZM11.75 0.930696C10.3697 0.927258 9.00239 1.19761 7.72725 1.7261C6.45211 2.25459 5.29444 3.03073 4.32125 4.0096C3.52609 4.8146 2.81953 5.58898 2.125 6.39945V4.4307C2.125 4.19863 2.03281 3.97607 1.86872 3.81198C1.70462 3.64788 1.48206 3.5557 1.25 3.5557C1.01794 3.5557 0.795376 3.64788 0.631282 3.81198C0.467187 3.97607 0.375 4.19863 0.375 4.4307V8.8057C0.375 9.03776 0.467187 9.26032 0.631282 9.42441C0.795376 9.58851 1.01794 9.6807 1.25 9.6807H5.625C5.85706 9.6807 6.07962 9.58851 6.24372 9.42441C6.40781 9.26032 6.5 9.03776 6.5 8.8057C6.5 8.57363 6.40781 8.35107 6.24372 8.18698C6.07962 8.02288 5.85706 7.9307 5.625 7.9307H3.10938C3.89141 7.00976 4.67016 6.14242 5.55828 5.24335C6.77437 4.02727 8.32187 3.19652 10.0074 2.85491C11.6929 2.51329 13.4418 2.67597 15.0354 3.3226C16.629 3.96924 17.9967 5.07116 18.9676 6.49067C19.9386 7.91019 20.4697 9.58436 20.4945 11.304C20.5194 13.0236 20.037 14.7124 19.1075 16.1594C18.1781 17.6065 16.8428 18.7475 15.2685 19.4399C13.6943 20.1324 11.9509 20.3456 10.2562 20.0529C8.56148 19.7602 6.9906 18.9745 5.73984 17.7941C5.65625 17.7151 5.55791 17.6534 5.45045 17.6124C5.34299 17.5714 5.2285 17.552 5.11353 17.5552C4.99856 17.5585 4.88536 17.5843 4.78038 17.6313C4.67541 17.6783 4.58072 17.7455 4.50172 17.8291C4.42272 17.9127 4.36096 18.0111 4.31997 18.1185C4.27897 18.226 4.25954 18.3405 4.26279 18.4554C4.26604 18.5704 4.29191 18.6836 4.33891 18.7886C4.38591 18.8936 4.45312 18.9883 4.53672 19.0673C5.78299 20.2433 7.29817 21.0965 8.95 21.5524C10.6018 22.0082 12.3401 22.0528 14.0132 21.6824C15.6863 21.3119 17.2432 20.5376 18.5482 19.427C19.8532 18.3165 20.8665 16.9034 21.4998 15.3111C22.1331 13.7188 22.3671 11.9958 22.1813 10.2923C21.9955 8.58882 21.3956 6.9567 20.434 5.53837C19.4724 4.12005 18.1783 2.95862 16.6646 2.15546C15.1508 1.3523 13.4636 0.931812 11.75 0.930696Z" fill="#343330"/>
</svg>
