<svg width="34" height="34" viewBox="0 0 28 29" fill="none" xmlns="http://www.w3.org/2000/svg">
<path d="M23.8467 4.53667C23.7082 4.21424 23.3926 4.00383 23.0417 4H17.2083C16.7251 4 16.3333 4.39175 16.3333 4.875C16.3333 5.35825 16.7251 5.75 17.2083 5.75H20.93L14.2567 12.4233C13.9155 12.765 13.9155 13.3184 14.2567 13.66C14.5983 14.0012 15.1517 14.0012 15.4933 13.66L22.1667 6.98667V10.7083C22.1667 11.1916 22.5584 11.5833 23.0417 11.5833C23.5249 11.5833 23.9167 11.1916 23.9167 10.7083V4.875C23.9161 4.75869 23.8923 4.64367 23.8467 4.53667Z" fill="#6100FF"/>
<path d="M20.7083 13.3333C20.2277 13.3396 19.8396 13.7277 19.8333 14.2083V18.875C19.8269 20.9664 18.1331 22.6603 16.0417 22.6667H9.04167C6.95025 22.6603 5.25641 20.9664 5.25 18.875V11.875C5.25641 9.78358 6.95025 8.08974 9.04167 8.08333H13.7083C14.1916 8.08333 14.5833 7.69158 14.5833 7.20833C14.5833 6.72508 14.1916 6.33333 13.7083 6.33333H9.04167C5.98109 6.33333 3.5 8.81442 3.5 11.875V18.875C3.5 21.9356 5.98109 24.4167 9.04167 24.4167H16.0417C19.1022 24.4167 21.5833 21.9356 21.5833 18.875V14.2083C21.577 13.7277 21.189 13.3396 20.7083 13.3333Z" fill="#6100FF"/>
</svg>
