<svg xmlns="http://www.w3.org/2000/svg" width="49" height="49" fill="none" viewBox="0 0 49 49">
  <path fill="#343330" d="M5 15.071v-3a3 3 0 0 1 3-3h10c.648.002 1.28.212 1.8.6l5.6 4.2a1.5 1.5 0 1 1-1.8 2.4l-5.6-4.2H8v3a1.5 1.5 0 0 1-3 0Zm12 22.5H8v-1.5a1.5 1.5 0 0 0-3 0v1.617a2.888 2.888 0 0 0 2.884 2.883H17a1.5 1.5 0 1 0 0-3Zm13.5 0h-6a1.5 1.5 0 1 0 0 3h6a1.5 1.5 0 1 0 0-3Zm12-10.5a1.5 1.5 0 0 0-1.5 1.5v9h-3a1.5 1.5 0 1 0 0 3h3.167A2.837 2.837 0 0 0 44 37.738v-9.167a1.5 1.5 0 0 0-1.5-1.5Zm-1.5-13.5h-9a1.5 1.5 0 1 0 0 3h9v4.5a1.5 1.5 0 1 0 3 0v-4.5a3 3 0 0 0-3-3Zm-34.5 16.5a1.5 1.5 0 0 0 1.5-1.5v-6a1.5 1.5 0 0 0-3 0v6a1.5 1.5 0 0 0 1.5 1.5Z"/>
</svg>
