<svg width="435" height="1022" viewBox="0 0 435 1022" fill="none" xmlns="http://www.w3.org/2000/svg">
<path fill-rule="evenodd" clip-rule="evenodd" d="M331.928 8C331.928 3.58172 335.509 0 339.928 0H524.504C528.923 0 532.504 3.58172 532.504 8V192.804C532.504 197.222 528.923 200.804 524.504 200.804H339.928C335.509 200.804 331.928 197.222 331.928 192.804V8ZM340.926 0.999022C336.507 0.999022 332.926 4.58073 332.926 8.99901V191.804C332.926 196.223 336.507 199.804 340.926 199.804H523.506C527.925 199.804 531.506 196.223 531.506 191.804V8.99902C531.506 4.58074 527.925 0.999022 523.506 0.999022H340.926Z" fill="#6100FF"/>
<path fill-rule="evenodd" clip-rule="evenodd" d="M6.07087 237.981C2.95048 234.853 2.95048 229.782 6.07087 226.654L136.6 95.8071C139.72 92.6791 144.779 92.6791 147.9 95.8071L278.428 226.654C281.549 229.782 281.549 234.853 278.428 237.981L147.9 368.828C144.779 371.956 139.72 371.956 136.6 368.828L6.07087 237.981ZM7.48118 226.654C4.36079 229.782 4.3608 234.853 7.48119 237.981L136.6 367.414C139.72 370.542 144.779 370.542 147.9 367.414L277.018 237.981C280.138 234.853 280.138 229.782 277.018 226.654L147.9 97.2208C144.779 94.0928 139.72 94.0928 136.6 97.2208L7.48118 226.654Z" fill="#6100FF"/>
<path fill-rule="evenodd" clip-rule="evenodd" d="M147.479 949.406C144.358 952.534 139.299 952.534 136.179 949.406L5.64993 818.559C2.52955 815.431 2.52954 810.36 5.64993 807.232L136.179 676.385C139.299 673.257 144.358 673.257 147.479 676.385L278.007 807.232C281.128 810.36 281.128 815.431 278.007 818.559L147.479 949.406ZM136.179 947.992C139.299 951.12 144.358 951.12 147.479 947.992L276.597 818.559C279.717 815.431 279.717 810.36 276.597 807.232L147.479 677.799C144.358 674.671 139.299 674.671 136.179 677.799L7.06025 807.232C3.93986 810.36 3.93986 815.431 7.06026 818.559L136.179 947.992Z" fill="#6100FF"/>
<path fill-rule="evenodd" clip-rule="evenodd" d="M532.504 1014C532.504 1018.42 528.922 1022 524.504 1022H339.928C335.509 1022 331.928 1018.42 331.928 1014V829.196C331.928 824.778 335.509 821.196 339.928 821.196H524.504C528.922 821.196 532.504 824.778 532.504 829.196V1014ZM523.506 1021C527.925 1021 531.506 1017.42 531.506 1013V830.196C531.506 825.777 527.925 822.196 523.506 822.196H340.925C336.507 822.196 332.925 825.777 332.925 830.196V1013C332.925 1017.42 336.507 1021 340.925 1021H523.506Z" fill="#6100FF"/>
</svg>
